<?xml version="1.0" encoding="UTF-8"?>
<svg width="24px" height="24px" viewBox="0 0 24 24" version="1.1" xmlns="http://www.w3.org/2000/svg" xmlns:xlink="http://www.w3.org/1999/xlink">
    <!-- Generator: Sketch 52.5 (67469) - http://www.bohemiancoding.com/sketch -->
    <title>Icons/icn-home</title>
    <desc>Created with Sketch.</desc>
    <g id="Icons/icn-home" stroke="none" stroke-width="1" fill="none" fill-rule="evenodd">
        <path d="M22.7072,12.293 C22.9932,12.579 23.0792,13.009 22.9242,13.383 C22.7702,13.757 22.4042,14 22.0002,14 L20.0002,14 L20.0002,21 C20.0002,21.553 19.5532,22 19.0002,22 L5.0002,22 C4.4472,22 4.0002,21.553 4.0002,21 L4.0002,14 L2.0002,14 C1.5962,14 1.2302,13.757 1.0762,13.383 C0.9212,13.009 1.0072,12.579 1.2932,12.293 L6.0002,7.586 L6.0002,3 C6.0002,2.447 6.4472,2 7.0002,2 C7.5532,2 8.0002,2.447 8.0002,3 L8.0002,5.586 L11.2932,2.293 C11.6842,1.902 12.3162,1.902 12.7072,2.293 L22.7072,12.293 Z M19.0002,12 L19.5862,12 L12.0002,4.414 L7.7082,8.706 L7.7062,8.708 L4.4142,12 L5.0002,12 C5.5532,12 6.0002,12.447 6.0002,13 L6.0002,20 L18.0002,20 L18.0002,13 C18.0002,12.447 18.4472,12 19.0002,12 Z M11,16 L13,16 L13,14 L11,14 L11,16 Z M9,13 C9,12.447 9.447,12 10,12 L14,12 C14.553,12 15,12.447 15,13 L15,17 C15,17.553 14.553,18 14,18 L10,18 C9.447,18 9,17.553 9,17 L9,13 Z" id="Fill-3" fill="#003094"></path>
    </g>
</svg>