<?xml version="1.0" encoding="UTF-8"?>
<svg width="24px" height="24px" viewBox="0 0 24 24" version="1.1" xmlns="http://www.w3.org/2000/svg" xmlns:xlink="http://www.w3.org/1999/xlink">
    <!-- Generator: Sketch 52.5 (67469) - http://www.bohemiancoding.com/sketch -->
    <title>Icons/icn-geo</title>
    <desc>Created with Sketch.</desc>
    <g id="Icons/icn-geo" stroke="none" stroke-width="1" fill="none" fill-rule="evenodd">
        <path d="M12.2666,23.998 C12.0616,23.998 11.8566,23.936 11.6826,23.81 C11.3336,23.559 3.1606,17.573 3.0016,9.171 C2.9076,4.21 6.8676,0.097 11.8286,0.002 C16.8256,-0.099 20.9036,3.867 20.9986,8.83 L20.9986,8.829 C21.1586,17.232 13.2196,23.522 12.8816,23.786 C12.7006,23.928 12.4826,23.998 12.2666,23.998 Z M12.0026,2 C11.9576,2 11.9126,2.001 11.8676,2.002 C8.0086,2.075 4.9286,5.274 5.0016,9.134 C5.1176,15.298 10.4146,20.198 12.2406,21.706 C14.0066,20.126 19.1156,15.017 18.9986,8.868 L18.9986,8.867 C18.9266,5.054 15.8006,2 12.0026,2 Z M12.0026,8.0009 L11.9816,8.0009 C11.7136,8.0059 11.4656,8.1139 11.2796,8.3069 C11.0946,8.4989 10.9946,8.7519 11.0006,9.0199 C11.0056,9.2859 11.1136,9.5349 11.3076,9.7209 C11.4986,9.9049 11.7566,9.9999 12.0186,9.9999 C12.2866,9.9949 12.5356,9.8869 12.7216,9.6939 C12.9056,9.5019 13.0046,9.2489 12.9996,8.9819 L12.9996,8.9809 C12.9946,8.7139 12.8866,8.4649 12.6936,8.2799 C12.5066,8.0999 12.2616,8.0009 12.0026,8.0009 Z M11.9966,11.9999 C11.2186,11.9999 10.4826,11.7039 9.9196,11.1609 C9.3426,10.6049 9.0166,9.8579 9.0006,9.0569 C8.9846,8.2559 9.2836,7.4969 9.8386,6.9199 C10.3956,6.3429 11.1436,6.0159 11.9436,6.0009 C12.7626,6.0249 13.5046,6.2839 14.0816,6.8399 C14.6586,7.3959 14.9846,8.1429 14.9996,8.9439 C15.0156,9.7449 14.7176,10.5049 14.1616,11.0819 C13.6056,11.6589 12.8576,11.9849 12.0576,11.9999 L11.9966,11.9999 Z" id="Fill-1" fill="#003094"></path>
    </g>
</svg>