<?xml version="1.0" encoding="UTF-8"?>
<svg width="24px" height="24px" viewBox="0 0 24 24" version="1.1" xmlns="http://www.w3.org/2000/svg" xmlns:xlink="http://www.w3.org/1999/xlink">
    <!-- Generator: Sketch 52.5 (67469) - http://www.bohemiancoding.com/sketch -->
    <title>Icons/icn-link</title>
    <desc>Created with Sketch.</desc>
    <g id="Icons/icn-link" stroke="none" stroke-width="1" fill="none" fill-rule="evenodd">
        <path d="M16,13 L8,13 C7.448,13 7,12.553 7,12 C7,11.447 7.448,11 8,11 L16,11 C16.553,11 17,11.447 17,12 C17,12.553 16.553,13 16,13 Z M5,14 L10.047,14 C10.217,14 10.327,14.195 10.228,14.333 C9.502,15.338 8.332,16 7,16 L5,16 C2.663,16 0.788,13.986 1.02,11.602 C1.222,9.523 3.089,8 5.178,8 L7,8 C8.332,8 9.502,8.662 10.228,9.667 C10.327,9.805 10.217,10 10.047,10 L5.113,10 C4.116,10 3.19,10.678 3.028,11.661 C2.821,12.913 3.786,14 5,14 Z M18.8228,8 C20.9108,8 22.7788,9.523 22.9808,11.601 C23.2128,13.986 21.3378,16 18.9998,16 L16.9998,16 C15.6678,16 14.4968,15.338 13.7728,14.333 C13.6728,14.195 13.7828,14 13.9528,14 L18.9998,14 C20.2138,14 21.1788,12.913 20.9718,11.662 C20.8098,10.678 19.8838,10 18.8868,10 L13.9528,10 C13.7828,10 13.6728,9.805 13.7728,9.667 C14.4968,8.662 15.6678,8 16.9998,8 L18.8228,8 Z" id="Combined-Shape" fill="#003094"></path>
    </g>
</svg>