<?xml version="1.0" encoding="UTF-8"?>
<svg width="24px" height="24px" viewBox="0 0 24 24" version="1.1" xmlns="http://www.w3.org/2000/svg" xmlns:xlink="http://www.w3.org/1999/xlink">
    <!-- Generator: Sketch 52.5 (67469) - http://www.bohemiancoding.com/sketch -->
    <title>Icons/icn-datasource</title>
    <desc>Created with Sketch.</desc>
    <g id="Icons/icn-datasource" stroke="none" stroke-width="1" fill="none" fill-rule="evenodd">
        <path d="M14,5.4141 L16.586,8.0001 L14,8.0001 L14,5.4141 Z M19,11.0001 L18,11.0001 L18,20.0001 L6,20.0001 L6,4.0001 L12,4.0001 L12,9.0001 C12,9.5531 12.447,10.0001 13,10.0001 L19,10.0001 C19.404,10.0001 19.77,9.7571 19.924,9.3831 C20.079,9.0091 19.993,8.5791 19.707,8.2931 L13.707,2.2931 C13.516,2.1011 13.26,2.0091 13,2.0091 L13,2.0001 L5,2.0001 C4.447,2.0001 4,2.4471 4,3.0001 L4,21.0001 C4,21.5531 4.447,22.0001 5,22.0001 L19,22.0001 C19.553,22.0001 20,21.5531 20,21.0001 L20,10.7171 C19.701,10.8911 19.363,11.0001 19,11.0001 Z" id="Fill-1" fill="#003094"></path>
    </g>
</svg>