<?xml version="1.0" encoding="UTF-8"?>
<svg width="24px" height="22px" viewBox="0 0 24 22" version="1.1" xmlns="http://www.w3.org/2000/svg" xmlns:xlink="http://www.w3.org/1999/xlink">
    <!-- Generator: Sketch 52.5 (67469) - http://www.bohemiancoding.com/sketch -->
    <title>icn-message</title>
    <desc>Created with Sketch.</desc>
    <g id="Page-1" stroke="none" stroke-width="1" fill="none" fill-rule="evenodd">
        <g id="Index-01" transform="translate(-1378.000000, -164.000000)" fill="#FFFFFF">
            <g id="Header" transform="translate(360.000000, 0.000000)">
                <g id="Menu" transform="translate(45.000000, 164.000000)">
                    <path d="M990,0 C993.86,0 997,3.141 997,7 L997,11 C997,14.859 993.86,18 990,18 L984.268,18 L980.701,21.505 C980.51,21.692 980.257,21.792 980,21.792 C979.87,21.792 979.738,21.767 979.613,21.714 C979.242,21.559 979,21.195 979,20.792 L979,17.929 C975.612,17.442 973,14.521 973,11 L973,7 C973,3.141 976.14,0 980,0 L990,0 Z M995,11 L995,7 C995,4.243 992.757,2 990,2 L980,2 C977.243,2 975,4.243 975,7 L975,11 C975,13.757 977.243,16 980,16 C980.552,16 981,16.447 981,17 L981,18.407 L983.157,16.287 C983.344,16.103 983.596,16 983.858,16 L990,16 C992.757,16 995,13.757 995,11 Z M990,6 C990.552,6 991,6.447 991,7 C991,7.553 990.552,8 990,8 L980,8 C979.448,8 979,7.553 979,7 C979,6.447 979.448,6 980,6 L990,6 Z M986,10 C986.552,10 987,10.447 987,11 C987,11.553 986.552,12 986,12 L980,12 C979.448,12 979,11.553 979,11 C979,10.447 979.448,10 980,10 L986,10 Z" id="icn-message"></path>
                </g>
            </g>
        </g>
    </g>
</svg>