<?xml version="1.0" encoding="UTF-8"?>
<svg width="24px" height="24px" viewBox="0 0 24 24" version="1.1" xmlns="http://www.w3.org/2000/svg" xmlns:xlink="http://www.w3.org/1999/xlink">
    <!-- Generator: Sketch 52 (66869) - http://www.bohemiancoding.com/sketch -->
    <title>Icons/icn-phone</title>
    <desc>Created with Sketch.</desc>
    <g id="Icons/icn-phone" stroke="none" stroke-width="1" fill="none" fill-rule="evenodd">
        <path d="M9,14 C8.447,14 8,13.552 8,13 C8,12.448 8.447,12 9,12 C9.553,12 10,12.448 10,13 C10,13.552 9.553,14 9,14 Z M9,17 C8.447,17 8,16.552 8,16 C8,15.448 8.447,15 9,15 C9.553,15 10,15.448 10,16 C10,16.552 9.553,17 9,17 Z M12,17 C11.447,17 11,16.552 11,16 C11,15.448 11.447,15 12,15 C12.553,15 13,15.448 13,16 C13,16.552 12.553,17 12,17 Z M12,20 C11.447,20 11,19.552 11,19 C11,18.448 11.447,18 12,18 C12.553,18 13,18.448 13,19 C13,19.552 12.553,20 12,20 Z M15,17 C14.447,17 14,16.552 14,16 C14,15.448 14.447,15 15,15 C15.553,15 16,15.448 16,16 C16,16.552 15.553,17 15,17 Z M15,20 C14.447,20 14,19.552 14,19 C14,18.448 14.447,18 15,18 C15.553,18 16,18.448 16,19 C16,19.552 15.553,20 15,20 Z M9,20 C8.447,20 8,19.552 8,19 C8,18.448 8.447,18 9,18 C9.553,18 10,18.448 10,19 C10,19.552 9.553,20 9,20 Z M15,14 C14.447,14 14,13.552 14,13 C14,12.448 14.447,12 15,12 C15.553,12 16,12.448 16,13 C16,13.552 15.553,14 15,14 Z M12,14 C11.447,14 11,13.552 11,13 C11,12.448 11.447,12 12,12 C12.553,12 13,12.448 13,13 C13,13.552 12.553,14 12,14 Z M15,10 L9,10 C8.447,10 8,9.553 8,9 C8,8.447 8.447,8 9,8 L15,8 C15.553,8 16,8.447 16,9 C16,9.553 15.553,10 15,10 Z M7,2 C6.448,2 6,2.448 6,3 L6,21 C6,21.552 6.448,22 7,22 L17,22 C17.552,22 18,21.552 18,21 L18,3 C18,2.448 17.552,2 17,2 L7,2 Z M17,24 L7,24 C5.346,24 4,22.654 4,21 L4,3 C4,1.346 5.346,0 7,0 L17,0 C18.654,0 20,1.346 20,3 L20,21 C20,22.654 18.654,24 17,24 Z" id="Fill-1" fill="#1059D3"></path>
    </g>
</svg>