<?xml version="1.0" encoding="UTF-8"?>
<svg width="24px" height="24px" viewBox="0 0 24 24" version="1.1" xmlns="http://www.w3.org/2000/svg" xmlns:xlink="http://www.w3.org/1999/xlink">
    <!-- Generator: Sketch 52 (66869) - http://www.bohemiancoding.com/sketch -->
    <title>Icons/icn-administration</title>
    <desc>Created with Sketch.</desc>
    <g id="Icons/icn-administration" stroke="none" stroke-width="1" fill="none" fill-rule="evenodd">
        <path d="M23,23.9995 L1,23.9995 C0.447,23.9995 -2.71050543e-20,23.5525 -2.71050543e-20,22.9995 C-2.71050543e-20,22.4465 0.447,21.9995 1,21.9995 L23,21.9995 C23.553,21.9995 24,22.4465 24,22.9995 C24,23.5525 23.553,23.9995 23,23.9995 M4.9219,5.9995 L19.0779,5.9995 L11.9999,2.1385 L4.9219,5.9995 Z M22.9999,7.9995 L0.9999,7.9995 C0.5429,7.9995 0.1439,7.6895 0.0309,7.2465 C-0.0821,6.8035 0.1199,6.3405 0.5219,6.1215 L11.5219,0.1215 C11.8179,-0.0405 12.1819,-0.0405 12.4789,0.1215 L23.4789,6.1215 C23.8799,6.3405 24.0819,6.8035 23.9689,7.2465 C23.8569,7.6895 23.4569,7.9995 22.9999,7.9995 Z M22,18.9995 C22.553,18.9995 23,19.4465 23,19.9995 C23,20.5525 22.553,20.9995 22,20.9995 L2,20.9995 C1.447,20.9995 1,20.5525 1,19.9995 C1,19.4465 1.447,18.9995 2,18.9995 L22,18.9995 Z M3,17.9995 L3,8.9995 L5,8.9995 L5,17.9995 L3,17.9995 Z M7,17.9995 L7,8.9995 L9,8.9995 L9,17.9995 L7,17.9995 Z M11,17.9995 L11,8.9995 L13,8.9995 L13,17.9995 L11,17.9995 Z M15,17.9995 L15,8.9995 L17,8.9995 L17,17.9995 L15,17.9995 Z M19,17.9995 L19,8.9995 L21,8.9995 L21,17.9995 L19,17.9995 Z" id="Fill-1" fill="#1059D3"></path>
    </g>
</svg>