<?xml version="1.0" encoding="UTF-8"?>
<svg width="24px" height="24px" viewBox="0 0 24 24" version="1.1" xmlns="http://www.w3.org/2000/svg" xmlns:xlink="http://www.w3.org/1999/xlink">
    <!-- Generator: Sketch 52 (66869) - http://www.bohemiancoding.com/sketch -->
    <title>Icons/icn-place</title>
    <desc>Created with Sketch.</desc>
    <g id="Icons/icn-place" stroke="none" stroke-width="1" fill="none" fill-rule="evenodd">
        <path d="M12.0021266,2.00006318 C11.9571292,2.00006318 11.9121317,2.00106327 11.8671343,2.00206335 C8.00835414,2.07506978 4.9285296,5.27435144 5.00152544,9.13469129 C5.11751883,15.299234 10.4142171,20.1996654 12.240113,21.7077982 C14.0060124,20.1276591 19.1147214,15.0182093 18.9977281,8.86866787 L18.9977281,8.86766779 C18.9257322,5.05433207 15.7999102,2.00006318 12.0021266,2.00006318 M12.2661116,24 C12.0611232,24 11.8561349,23.9379945 11.6821448,23.8119834 C11.3331647,23.5609613 3.16063032,17.5744343 3.00163938,9.17169455 C2.90764473,4.21025776 6.86741914,0.0968956274 11.8281365,0.0018872631 C16.8248518,-0.0991216295 20.9026195,3.86722756 20.9976141,8.83066453 L20.9976141,8.82966444 C21.157605,17.2334043 13.2190573,23.5239581 12.8810765,23.7879813 C12.7000868,23.9299938 12.4820993,24 12.2661116,24 M12.0021266,8.00149153 L11.9811278,8.00149153 C11.7131431,8.00649197 11.4651572,8.11450148 11.2791678,8.30751847 C11.0941783,8.49953538 10.994184,8.75255765 11.0001837,9.02058125 C11.0051834,9.28660467 11.1131773,9.53562659 11.3071662,9.72164297 C11.4981553,9.90565917 11.7561406,10.0006675 12.0181257,10.0006675 C12.2861104,9.99566709 12.5350962,9.88765758 12.7210856,9.69464059 C12.9050752,9.50262369 13.0040695,9.24960141 12.9990698,8.9825779 L12.9990698,8.98157781 C12.9940701,8.71455431 12.8860762,8.46553238 12.6930872,8.28051609 C12.5060979,8.10050025 12.2611119,8.00149153 12.0021266,8.00149153 Z M11.9961269,12.0008436 C11.2181713,12.0008436 10.4822132,11.7048176 9.91924527,11.1617698 C9.34227814,10.6057208 9.01629671,9.85865503 9.00029762,9.05758451 C8.98429854,8.25651398 9.2832815,7.49744715 9.83824989,6.92039635 C10.3952182,6.34334555 11.1431755,6.01631676 11.94313,6.00131544 C12.7620833,6.02531755 13.504041,6.28434036 14.0810082,6.84038931 C14.6579753,7.39643826 14.9839567,8.14350403 14.9989559,8.94457456 C15.014955,9.74564508 14.7169719,10.505712 14.1610036,11.0827628 C13.6050353,11.6598136 12.8570779,11.9858423 12.0571235,12.0008436 L11.9961269,12.0008436 Z" id="icn-place" fill="#1059D3"></path>
    </g>
</svg>