<?xml version="1.0" encoding="UTF-8"?>
<svg width="24px" height="24px" viewBox="0 0 24 24" version="1.1" xmlns="http://www.w3.org/2000/svg" xmlns:xlink="http://www.w3.org/1999/xlink">
    <!-- Generator: Sketch 52 (66869) - http://www.bohemiancoding.com/sketch -->
    <title>Icons/icn-website-02</title>
    <desc>Created with Sketch.</desc>
    <g id="Icons/icn-website-02" stroke="none" stroke-width="1" fill="none" fill-rule="evenodd">
        <path d="M16.8232,20.7539 C17.2832,20.0099 17.6812,19.1569 18.0082,18.2179 C18.5542,18.3189 19.0542,18.4389 19.5222,18.5659 C18.7582,19.4419 17.8472,20.1879 16.8232,20.7539 Z M4.4772,18.5659 C4.9452,18.4389 5.4452,18.3189 5.9922,18.2179 C6.3182,19.1569 6.7172,20.0099 7.1772,20.7539 C6.1522,20.1879 5.2422,19.4419 4.4772,18.5659 Z M7.1772,3.2459 C6.7602,3.9189 6.3942,4.6789 6.0862,5.5139 C5.5852,5.4229 5.1232,5.3169 4.6852,5.2039 C5.4072,4.4279 6.2432,3.7619 7.1772,3.2459 Z M19.3142,5.2039 C18.8772,5.3169 18.4152,5.4229 17.9142,5.5139 C17.6052,4.6789 17.2392,3.9189 16.8232,3.2459 C17.7572,3.7619 18.5932,4.4279 19.3142,5.2039 Z M18.9712,10.9999 C18.9132,9.7449 18.7492,8.5509 18.4912,7.4429 C19.2592,7.2959 19.9652,7.1209 20.5982,6.9209 C21.3222,8.1409 21.8022,9.5209 21.9492,10.9999 L18.9712,10.9999 Z M18.9712,12.9999 L21.9492,12.9999 C21.8112,14.3839 21.3872,15.6839 20.7422,16.8439 C20.0862,16.6289 19.3532,16.4409 18.5482,16.2839 C18.7722,15.2529 18.9182,14.1529 18.9712,12.9999 Z M13.0002,15.7319 L13.0002,12.9999 L16.9732,12.9999 C16.9192,14.0459 16.7772,15.0469 16.5672,15.9809 C15.4482,15.8459 14.2502,15.7609 13.0002,15.7319 Z M13.0002,21.7889 L13.0002,17.7319 C14.0382,17.7579 15.0432,17.8239 15.9892,17.9279 C15.2622,19.8579 14.2052,21.2759 13.0002,21.7889 Z M11.0002,17.7319 L11.0002,21.7889 C9.7952,21.2759 8.7372,19.8579 8.0102,17.9279 C8.9572,17.8239 9.9622,17.7579 11.0002,17.7319 Z M7.0262,12.9999 L11.0002,12.9999 L11.0002,15.7319 C9.7502,15.7609 8.5522,15.8459 7.4322,15.9809 C7.2222,15.0469 7.0812,14.0459 7.0262,12.9999 Z M5.0282,12.9999 C5.0822,14.1529 5.2282,15.2529 5.4522,16.2839 C4.6462,16.4409 3.9142,16.6289 3.2582,16.8439 C2.6122,15.6839 2.1882,14.3839 2.0512,12.9999 L5.0282,12.9999 Z M5.0282,10.9999 L2.0512,10.9999 C2.1982,9.5209 2.6772,8.1409 3.4012,6.9209 C4.0352,7.1209 4.7412,7.2959 5.5092,7.4429 C5.2502,8.5509 5.0872,9.7449 5.0282,10.9999 Z M11.0002,7.9829 L11.0002,10.9999 L7.0262,10.9999 C7.0862,9.8489 7.2542,8.7539 7.5002,7.7419 C8.6002,7.8729 9.7752,7.9549 11.0002,7.9829 Z M11.0002,2.2109 L11.0002,5.9829 C10.0002,5.9579 9.0292,5.8979 8.1132,5.7999 C8.8352,4.0079 9.8512,2.6989 11.0002,2.2109 Z M13.0002,5.9829 L13.0002,2.2109 C14.1482,2.6989 15.1652,4.0079 15.8862,5.7999 C14.9702,5.8969 14.0002,5.9579 13.0002,5.9829 Z M13.0002,7.9829 C14.2242,7.9549 15.3992,7.8729 16.5002,7.7419 C16.7462,8.7539 16.9142,9.8489 16.9732,10.9999 L13.0002,10.9999 L13.0002,7.9829 Z M12.0002,-0.0001 C5.3832,-0.0001 0.0002,5.3829 0.0002,11.9999 C0.0002,18.6169 5.3832,23.9999 12.0002,23.9999 C18.6172,23.9999 24.0002,18.6169 24.0002,11.9999 C24.0002,5.3829 18.6172,-0.0001 12.0002,-0.0001 Z" id="Fill-1" fill="#1059D3"></path>
    </g>
</svg>