<?xml version="1.0" encoding="UTF-8"?>
<svg width="24px" height="24px" viewBox="0 0 24 24" version="1.1" xmlns="http://www.w3.org/2000/svg" xmlns:xlink="http://www.w3.org/1999/xlink">
    <!-- Generator: Sketch 52 (66869) - http://www.bohemiancoding.com/sketch -->
    <title>icn-price</title>
    <desc>Created with Sketch.</desc>
    <g id="Desktop-Pages" stroke="none" stroke-width="1" fill="none" fill-rule="evenodd">
        <g id="Service-Page---Tab-1" transform="translate(-1206.000000, -704.000000)" fill="#19448D">
            <g id="Center-Info" transform="translate(1165.000000, 510.000000)">
                <g id="Price" transform="translate(28.000000, 155.000000)">
                    <path d="M19.5,49 C16.753,49 15,47.815 15,47 L15,45.933 C16.151,46.6 17.718,47 19.5,47 C21.282,47 22.849,46.6 24,45.933 L24,47 C24,47.815 22.247,49 19.5,49 M19.5,53 C16.753,53 15,51.815 15,51 L15,49.933 C16.151,50.6 17.718,51 19.5,51 C21.282,51 22.849,50.6 24,49.933 L24,51 C24,51.815 22.247,53 19.5,53 M19.5,57 C16.753,57 15,55.815 15,55 L15,53.933 C16.151,54.6 17.718,55 19.5,55 C21.282,55 22.849,54.6 24,53.933 L24,55 C24,55.815 22.247,57 19.5,57 M19.5,61 C16.753,61 15,59.815 15,59 L15,57.933 C16.151,58.6 17.718,59 19.5,59 C21.282,59 22.849,58.6 24,57.933 L24,59 C24,59.815 22.247,61 19.5,61 M19.5,41 C22.247,41 24,42.185 24,43 C24,43.815 22.247,45 19.5,45 C16.753,45 15,43.815 15,43 C15,42.185 16.753,41 19.5,41 M19.5,39 C23.206,39 26,40.72 26,43 L26,59 C26,61.28 23.206,63 19.5,63 C15.794,63 13,61.28 13,59 L13,43 C13,40.72 15.794,39 19.5,39 Z M30.5,43 C34.206,43 37,44.72 37,47 L37,55 C37,57.28 34.206,59 30.5,59 C29.604,59 28.763,58.897 28,58.713 L28,56.62 C28.689,56.848 29.528,57 30.5,57 C33.247,57 35,55.815 35,55 L35,53.933 C33.849,54.6 32.282,55 30.5,55 C29.604,55 28.762,54.897 28,54.712 L28,52.62 C28.689,52.848 29.528,53 30.5,53 C33.247,53 35,51.815 35,51 L35,49.933 C33.849,50.6 32.282,51 30.5,51 C29.604,51 28.762,50.898 28,50.712 L28,48.62 C28.689,48.847 29.528,49 30.5,49 C33.247,49 35,47.815 35,47 C35,46.185 33.247,45 30.5,45 C29.528,45 28.689,45.153 28,45.38 L28,43.287 C28.763,43.103 29.604,43 30.5,43 Z" id="icn-price"></path>
                </g>
            </g>
        </g>
    </g>
</svg>