<?xml version="1.0" encoding="UTF-8"?>
<svg width="24px" height="24px" viewBox="0 0 24 24" version="1.1" xmlns="http://www.w3.org/2000/svg" xmlns:xlink="http://www.w3.org/1999/xlink">
    <!-- Generator: Sketch 52.5 (67469) - http://www.bohemiancoding.com/sketch -->
    <title>Icons/icn-rss</title>
    <desc>Created with Sketch.</desc>
    <g id="Icons/icn-rss" stroke="none" stroke-width="1" fill="none" fill-rule="evenodd">
        <path d="M6.584,14.5803 C5.805,15.3603 5.805,16.6293 6.584,17.4093 C7.364,18.1883 8.633,18.1883 9.413,17.4093 C10.192,16.6293 10.192,15.3603 9.413,14.5803 C8.633,13.8003 7.364,13.8003 6.584,14.5803 Z M10.827,18.8233 C9.267,20.3833 6.73,20.3833 5.17,18.8233 C3.61,17.2633 3.61,14.7263 5.17,13.1663 C6.73,11.6063 9.267,11.6063 10.827,13.1663 C12.387,14.7263 12.387,17.2633 10.827,18.8233 Z M7.9985,7.9983 C10.0465,7.9983 12.0955,8.7783 13.6555,10.3373 C15.2145,11.8973 15.9945,13.9463 15.9945,15.9943 L13.9955,15.9943 C13.9955,14.4583 13.4105,12.9213 12.2415,11.7513 C11.0715,10.5823 9.5345,9.9973 7.9985,9.9973 L7.9985,7.9983 Z M7.9985,3.9997 C11.0715,3.9997 14.1445,5.1697 16.4835,7.5087 C18.8235,9.8487 19.9935,12.9217 19.9935,15.9947 L17.9935,15.9947 C17.9935,13.4337 17.0195,10.8727 15.0695,8.9237 C13.1205,6.9737 10.5595,5.9997 7.9985,5.9997 L7.9985,3.9997 Z" id="Combined-Shape" fill="#003094"></path>
    </g>
</svg>