<?xml version="1.0" encoding="UTF-8"?>
<svg width="24px" height="24px" viewBox="0 0 24 24" version="1.1" xmlns="http://www.w3.org/2000/svg" xmlns:xlink="http://www.w3.org/1999/xlink">
    <!-- Generator: Sketch 54.1 (76490) - https://sketchapp.com -->
    <title>Icons/icn-pages</title>
    <desc>Created with Sketch.</desc>
    <g id="Icons/icn-pages" stroke="none" stroke-width="1" fill="none" fill-rule="evenodd">
        <path d="M19,14.0001 L19,2.0001 L5,2.0001 L5,22.0001 L12,22.0001 L12,16.0001 C12,15.4471 12.448,15.0001 13,15.0001 L20,15.0001 C20.404,15.0001 20.769,15.2431 20.924,15.6171 C21.079,15.9911 20.993,16.4211 20.707,16.7071 L13.707,23.7071 C13.516,23.8991 13.26,23.9911 13,23.9911 L13,24.0001 L4,24.0001 C3.448,24.0001 3,23.5531 3,23.0001 L3,1.0001 C3,0.4471 3.448,0.0001 4,0.0001 L20,0.0001 C20.552,0.0001 21,0.4471 21,1.0001 L21,14.0001 L19,14.0001 Z M14,20.5861 L17.586,17.0001 L14,17.0001 L14,20.5861 Z M8,5 L16,5 C16.5522847,5 17,5.44771525 17,6 C17,6.55228475 16.5522847,7 16,7 L8,7 C7.44771525,7 7,6.55228475 7,6 C7,5.44771525 7.44771525,5 8,5 Z M8,9 L14,9 C14.5522847,9 15,9.44771525 15,10 C15,10.5522847 14.5522847,11 14,11 L8,11 C7.44771525,11 7,10.5522847 7,10 C7,9.44771525 7.44771525,9 8,9 Z" id="Fill-1" fill="#003094"></path>
    </g>
</svg>