<?xml version="1.0" encoding="UTF-8"?>
<svg width="24px" height="24px" viewBox="0 0 24 24" version="1.1" xmlns="http://www.w3.org/2000/svg" xmlns:xlink="http://www.w3.org/1999/xlink">
    <!-- Generator: Sketch 54.1 (76490) - https://sketchapp.com -->
    <title>Icons/icn-settings</title>
    <desc>Created with Sketch.</desc>
    <g id="Icons/icn-settings" stroke="none" stroke-width="1" fill="none" fill-rule="evenodd">
        <path d="M21.9997,12 C21.9997,12.553 21.5527,13 20.9997,13 L20.7687,13 C20.3147,13 19.8997,13.302 19.8027,13.744 C19.7547,13.965 19.6977,14.183 19.6307,14.397 C19.4967,14.828 19.7037,15.293 20.0957,15.52 L20.2937,15.634 C20.7727,15.91 20.9367,16.522 20.6597,17 C20.3837,17.479 19.7727,17.643 19.2937,17.366 L19.0867,17.246 C18.6947,17.02 18.1867,17.073 17.8797,17.406 C17.7287,17.57 17.5707,17.729 17.4057,17.88 C17.0727,18.187 17.0197,18.694 17.2457,19.086 L17.3667,19.294 C17.6417,19.772 17.4787,20.384 16.9997,20.66 C16.5217,20.937 15.9097,20.772 15.6337,20.294 L15.5187,20.096 C15.2937,19.705 14.8287,19.497 14.3977,19.631 C14.1837,19.697 13.9657,19.754 13.7447,19.803 C13.3017,19.9 12.9997,20.315 12.9997,20.769 L12.9997,21 C12.9997,21.553 12.5527,22 11.9997,22 C11.4477,22 10.9997,21.553 10.9997,21 L10.9997,20.769 C10.9997,20.315 10.6987,19.9 10.2557,19.803 C10.0347,19.754 9.8157,19.697 9.6017,19.631 C9.1707,19.497 8.7067,19.705 8.4807,20.096 L8.3667,20.294 C8.0897,20.772 7.4787,20.937 7.0007,20.66 L6.9997,20.66 C6.5217,20.384 6.3577,19.772 6.6337,19.294 L6.7537,19.086 C6.9797,18.694 6.9277,18.187 6.5947,17.88 C6.4297,17.729 6.2717,17.57 6.1197,17.406 C5.8137,17.073 5.3057,17.02 4.9137,17.246 L4.7057,17.366 C4.2277,17.643 3.6167,17.479 3.3397,17 C3.0637,16.522 3.2277,15.91 3.7057,15.634 L3.9047,15.52 C4.2957,15.293 4.5027,14.828 4.3687,14.397 C4.3027,14.183 4.2457,13.965 4.1977,13.744 C4.0997,13.302 3.6847,13 3.2317,13 L2.9997,13 C2.4477,13 1.9997,12.553 1.9997,12 C1.9997,11.447 2.4477,11 2.9997,11 L3.2317,11 C3.6847,11 4.0997,10.698 4.1977,10.256 C4.2457,10.034 4.3037,9.816 4.3697,9.602 C4.5037,9.171 4.2947,8.706 3.9047,8.48 L3.7057,8.366 C3.2277,8.09 3.0637,7.479 3.3397,7 C3.6167,6.522 4.2277,6.357 4.7057,6.634 L4.9137,6.754 C5.3057,6.98 5.8137,6.927 6.1197,6.594 C6.2717,6.43 6.4297,6.272 6.5947,6.12 C6.9277,5.814 6.9797,5.306 6.7537,4.914 L6.6337,4.706 C6.3577,4.228 6.5217,3.616 6.9997,3.34 L7.0007,3.34 C7.4787,3.064 8.0897,3.228 8.3667,3.706 L8.4807,3.904 C8.7067,4.295 9.1707,4.503 9.6017,4.369 C9.8157,4.303 10.0347,4.246 10.2557,4.197 C10.6987,4.1 10.9997,3.685 10.9997,3.231 L10.9997,3 C10.9997,2.447 11.4477,2 11.9997,2 C12.5527,2 12.9997,2.447 12.9997,3 L12.9997,3.231 C12.9997,3.685 13.3017,4.1 13.7447,4.197 C13.9657,4.246 14.1837,4.303 14.3977,4.369 C14.8287,4.503 15.2937,4.295 15.5187,3.904 L15.6337,3.706 C15.9097,3.228 16.5217,3.064 16.9997,3.34 C17.4787,3.616 17.6417,4.228 17.3667,4.706 L17.2457,4.914 C17.0197,5.306 17.0727,5.814 17.4057,6.12 C17.5707,6.272 17.7287,6.43 17.8797,6.594 C18.1867,6.927 18.6947,6.98 19.0867,6.754 L19.2937,6.634 C19.7727,6.357 20.3837,6.522 20.6597,7 C20.9367,7.479 20.7727,8.09 20.2937,8.366 L20.0957,8.48 C19.7047,8.706 19.4967,9.171 19.6307,9.602 C19.6967,9.816 19.7547,10.034 19.8027,10.256 C19.8997,10.698 20.3147,11 20.7687,11 L20.9997,11 C21.5527,11 21.9997,11.447 21.9997,12 Z M17.8467,10.626 C17.3547,8.423 15.5767,6.646 13.3737,6.153 C9.0047,5.178 5.1777,9.005 6.1537,13.374 C6.6457,15.577 8.4237,17.355 10.6257,17.847 C14.9957,18.822 18.8227,14.995 17.8467,10.626 Z M12,14 C13.103,14 14,13.103 14,12 C14,10.897 13.103,10 12,10 C10.897,10 10,10.897 10,12 C10,13.103 10.897,14 12,14 Z M13.088,8.145 C14.423,8.499 15.503,9.58 15.856,10.915 C16.662,13.956 13.951,16.663 10.912,15.855 C9.577,15.501 8.497,14.42 8.144,13.085 C7.338,10.044 10.049,7.337 13.088,8.145 Z" id="Fill-1" fill="#003094"></path>
    </g>
</svg>