<?xml version="1.0" encoding="UTF-8"?>
<svg width="24px" height="24px" viewBox="0 0 24 24" version="1.1" xmlns="http://www.w3.org/2000/svg" xmlns:xlink="http://www.w3.org/1999/xlink">
    <!-- Generator: Sketch 54.1 (76490) - https://sketchapp.com -->
    <title>Icons/icn-message</title>
    <desc>Created with Sketch.</desc>
    <g id="Icons/icn-message" stroke="none" stroke-width="1" fill="none" fill-rule="evenodd">
        <path d="M17,1 C20.86,1 24,4.141 24,8 L24,12 C24,15.859 20.86,19 17,19 L11.268,19 L7.701,22.505 C7.51,22.692 7.257,22.792 7,22.792 C6.87,22.792 6.738,22.767 6.613,22.714 C6.242,22.559 6,22.195 6,21.792 L6,18.929 C2.612,18.442 0,15.521 0,12 L0,8 C0,4.141 3.14,1 7,1 L17,1 Z M22,12 L22,8 C22,5.243 19.757,3 17,3 L7,3 C4.243,3 2,5.243 2,8 L2,12 C2,14.757 4.243,17 7,17 C7.552,17 8,17.447 8,18 L8,19.407 L10.157,17.287 C10.344,17.103 10.596,17 10.858,17 L17,17 C19.757,17 22,14.757 22,12 Z M17,7 C17.552,7 18,7.447 18,8 C18,8.553 17.552,9 17,9 L7,9 C6.448,9 6,8.553 6,8 C6,7.447 6.448,7 7,7 L17,7 Z M13,11 C13.552,11 14,11.447 14,12 C14,12.553 13.552,13 13,13 L7,13 C6.448,13 6,12.553 6,12 C6,11.447 6.448,11 7,11 L13,11 Z" id="icn-message" fill="#003094"></path>
    </g>
</svg>