<?xml version="1.0" encoding="UTF-8"?>
<svg width="24px" height="24px" viewBox="0 0 24 24" version="1.1" xmlns="http://www.w3.org/2000/svg" xmlns:xlink="http://www.w3.org/1999/xlink">
    <!-- Generator: Sketch 52.5 (67469) - http://www.bohemiancoding.com/sketch -->
    <title>Icons/icn-sn-twitter</title>
    <desc>Created with Sketch.</desc>
    <g id="Icons/icn-sn-twitter" stroke="none" stroke-width="1" fill="none" fill-rule="evenodd">
        <path d="M21.1888833,5.74970374 C20.5194619,6.04653926 19.7998339,6.24560404 19.0449732,6.33720907 C19.8156886,5.87566065 20.4067172,5.14458205 20.6859364,4.27257264 C19.9654276,4.70064999 19.1656453,5.01069778 18.3165371,5.17893394 C17.6365459,4.45314024 16.6658849,4.0004 15.5921683,4.0004 C13.5319359,4.0004 11.861025,5.67043015 11.861025,7.73154332 C11.861025,8.02309394 11.8936152,8.30935966 11.9579149,8.58241311 C8.85655616,8.42562758 6.10664364,6.94056912 4.26573488,4.68303363 C3.94511728,5.23442545 3.7610264,5.87477983 3.7610264,6.5591751 C3.7610264,7.85397696 4.41987796,8.99639738 5.42136756,9.66493793 C4.80919933,9.64555994 4.23402545,9.47732378 3.7310786,9.19810461 L3.7310786,9.24566876 C3.7310786,11.0531065 5.01707228,12.5610662 6.72409678,12.904585 C6.41140653,12.9891435 6.08109993,13.034946 5.74110434,13.034946 C5.49976032,13.034946 5.26634366,13.011164 5.03821191,12.9671231 C5.51385341,14.4513007 6.89233294,15.5303023 8.52448793,15.5593693 C7.24730243,16.5590972 5.6389295,17.1571724 3.89050658,17.1571724 C3.58926697,17.1571724 3.29243144,17.139556 3,17.1052041 C4.6524138,18.1630661 6.61311376,18.7814 8.72002944,18.7814 C15.5833601,18.7814 19.3365239,13.0948416 19.3365239,8.16314394 C19.3365239,8.00195432 19.3338814,7.84164552 19.3268349,7.6804559 C20.0561518,7.15548861 20.6885789,6.49839869 21.1888833,5.74970374" id="Fill-1" fill="#003094"></path>
    </g>
</svg>