<?xml version="1.0" encoding="UTF-8"?>
<svg width="24px" height="24px" viewBox="0 0 24 24" version="1.1" xmlns="http://www.w3.org/2000/svg" xmlns:xlink="http://www.w3.org/1999/xlink">
    <!-- Generator: Sketch 52.5 (67469) - http://www.bohemiancoding.com/sketch -->
    <title>Icons/icn-dataset</title>
    <desc>Created with Sketch.</desc>
    <g id="Icons/icn-dataset" stroke="none" stroke-width="1" fill="none" fill-rule="evenodd">
        <path d="M10,6 L14,6 L14,2 L10,2 L10,6 Z M9,8 C8.447,8 8,7.553 8,7 L8,1 C8,0.447 8.447,0 9,0 L15,0 C15.553,0 16,0.447 16,1 L16,7 C16,7.553 15.553,8 15,8 L9,8 Z M4,21 C4.552,21 5,20.552 5,20 C5,19.448 4.552,19 4,19 C3.448,19 3,19.448 3,20 C3,20.552 3.448,21 4,21 Z M4,17 C5.654,17 7,18.346 7,20 C7,21.654 5.654,23 4,23 C2.346,23 1,21.654 1,20 C1,18.346 2.346,17 4,17 Z M12,21 C12.552,21 13,20.552 13,20 C13,19.448 12.552,19 12,19 C11.448,19 11,19.448 11,20 C11,20.552 11.448,21 12,21 Z M12,17 C13.654,17 15,18.346 15,20 C15,21.654 13.654,23 12,23 C10.346,23 9,21.654 9,20 C9,18.346 10.346,17 12,17 Z M20,21 C20.552,21 21,20.552 21,20 C21,19.448 20.552,19 20,19 C19.448,19 19,19.448 19,20 C19,20.552 19.448,21 20,21 Z M20,17 C21.654,17 23,18.346 23,20 C23,21.654 21.654,23 20,23 C18.346,23 17,21.654 17,20 C17,18.346 18.346,17 20,17 Z M5,14 L5,16 L3,16 L3,13 C3,12.447 3.447,12 4,12 L11,12 L11,9 L13,9 L13,12 L20,12 C20.553,12 21,12.447 21,13 L21,16 L19,16 L19,14 L13,14 L13,16 L11,16 L11,14 L5,14 Z" id="Combined-Shape" fill="#003094"></path>
    </g>
</svg>