<?xml version="1.0" encoding="UTF-8"?>
<svg width="24px" height="24px" viewBox="0 0 24 24" version="1.1" xmlns="http://www.w3.org/2000/svg" xmlns:xlink="http://www.w3.org/1999/xlink">
    <!-- Generator: Sketch 54.1 (76490) - https://sketchapp.com -->
    <title>Icons/icn-info</title>
    <desc>Created with Sketch.</desc>
    <g id="Icons/icn-info" stroke="none" stroke-width="1" fill="none" fill-rule="evenodd">
        <path d="M12,24 C5.383,24 0,18.617 0,12 C0,5.383 5.383,0 12,0 C18.617,0 24,5.383 24,12 C24,18.617 18.617,24 12,24 Z M12,2 C6.486,2 2,6.486 2,12 C2,17.514 6.486,22 12,22 C17.514,22 22,17.514 22,12 C22,6.486 17.514,2 12,2 Z M12,9 C12.553,9 13,9.447 13,10 L13,16 C13,16.553 12.553,17 12,17 C11.447,17 11,16.553 11,16 L11,10 C11,9.447 11.447,9 12,9 Z M11,7 C11,6.447 11.447,6 12,6 C12.553,6 13,6.447 13,7 C13,7.553 12.553,8 12,8 C11.447,8 11,7.553 11,7 Z" id="Fill-1" fill="#003094"></path>
    </g>
</svg>