<?xml version="1.0" encoding="UTF-8"?>
<svg width="24px" height="24px" viewBox="0 0 24 24" version="1.1" xmlns="http://www.w3.org/2000/svg" xmlns:xlink="http://www.w3.org/1999/xlink">
    <!-- Generator: Sketch 54.1 (76490) - https://sketchapp.com -->
    <title>Icons/icn-dataset-info</title>
    <desc>Created with Sketch.</desc>
    <g id="Icons/icn-dataset-info" stroke="none" stroke-width="1" fill="none" fill-rule="evenodd">
        <path d="M20,7 L7,7 L7,5 L20,5 C20.552,5 21,5.447 21,6 C21,6.553 20.552,7 20,7 Z M20,11 L7,11 L7,9 L20,9 C20.552,9 21,9.447 21,10 C21,10.553 20.552,11 20,11 Z M20,15 L7,15 L7,13 L20,13 C20.552,13 21,13.447 21,14 C21,14.553 20.552,15 20,15 Z M16,19 L7,19 L7,17 L16,17 C16.552,17 17,17.447 17,18 C17,18.553 16.552,19 16,19 Z M3,7 L3,5 L5,5 L5,7 L3,7 Z M3,11 L3,9 L5,9 L5,11 L3,11 Z M3,15 L3,13 L5,13 L5,15 L3,15 Z M3,19 L3,17 L5,17 L5,19 L3,19 Z" id="Combined-Shape" fill="#003094"></path>
    </g>
</svg>