<?xml version="1.0" encoding="UTF-8"?>
<svg width="14px" height="16px" viewBox="0 0 14 16" version="1.1" xmlns="http://www.w3.org/2000/svg" xmlns:xlink="http://www.w3.org/1999/xlink">
    <!-- Generator: Sketch 52 (66869) - http://www.bohemiancoding.com/sketch -->
    <title>icn-document</title>
    <desc>Created with Sketch.</desc>
    <g id="Desktop-Pages" stroke="none" stroke-width="1" fill="none" fill-rule="evenodd" opacity="0.5">
        <g id="Service-Page---Tab-1" transform="translate(-1195.000000, -903.000000)" fill="#19448D">
            <g id="Center-Info" transform="translate(1165.000000, 510.000000)">
                <g id="Documents" transform="translate(28.000000, 352.000000)">
                    <g id="List" transform="translate(2.000000, 37.000000)">
                        <path d="M4,10 L4,8 L10,8 L10,10 L4,10 Z M4,14 L4,12 L8,12 L8,14 L4,14 Z M10.4142,20 L0,20 L0,4 L14,4 C14,8.1381 14,12.2761 14,16.4142 L10.4142,20 Z M12,14 L12,6 L2,6 L2,18 L8,18 L8,14 L12,14 Z M10,16 L10,17.5858 L11.5858,16 L10,16 Z" id="icn-document"></path>
                    </g>
                </g>
            </g>
        </g>
    </g>
</svg>