<?xml version="1.0" encoding="UTF-8"?>
<svg width="24px" height="24px" viewBox="0 0 24 24" version="1.1" xmlns="http://www.w3.org/2000/svg" xmlns:xlink="http://www.w3.org/1999/xlink">
    <!-- Generator: Sketch 54.1 (76490) - https://sketchapp.com -->
    <title>Icons/icn-signout</title>
    <desc>Created with Sketch.</desc>
    <g id="Icons/icn-signout" stroke="none" stroke-width="1" fill="none" fill-rule="evenodd">
        <path d="M14,17 L14,15 L16,15 L16,17 C16,18.654 14.654,20 13,20 L3,20 C1.346,20 0,18.654 0,17 L0,7 C0,5.346 1.346,4 3,4 L13,4 C14.654,4 16,5.346 16,7 L16,9 L14,9 L14,7 C14,6.449 13.552,6 13,6 L3,6 C2.448,6 2,6.449 2,7 L2,17 C2,17.552 2.448,18 3,18 L13,18 C13.552,18 14,17.552 14,17 Z M22.9492,11.293 C23.3402,11.684 23.3402,12.316 22.9492,12.707 L18.7072,16.949 L17.2932,15.535 L19.8282,13 L9.0002,13 L9.0002,11 L19.8282,11 L17.2932,8.465 L18.7072,7.051 L22.9492,11.293 Z" id="Combined-Shape" fill="#003094"></path>
    </g>
</svg>