<?xml version="1.0" encoding="UTF-8"?>
<svg width="21px" height="21px" viewBox="0 0 21 21" version="1.1" xmlns="http://www.w3.org/2000/svg" xmlns:xlink="http://www.w3.org/1999/xlink">
    <!-- Generator: Sketch 52.5 (67469) - http://www.bohemiancoding.com/sketch -->
    <title>icn-search</title>
    <desc>Created with Sketch.</desc>
    <g id="Symbols" stroke="none" stroke-width="1" fill="none" fill-rule="evenodd">
        <g id="UI/Search-Index" transform="translate(-14.000000, -13.000000)" fill="#FFFFFF">
            <path d="M22.9961,28.9927 C19.1391,28.9927 16.0001,25.8537 16.0001,21.9967 C16.0001,18.1387 19.1391,14.9997 22.9961,14.9997 C26.8531,14.9997 29.9921,18.1387 29.9921,21.9967 C29.9921,25.8537 26.8531,28.9927 22.9961,28.9927 M33.9961,31.5827 L30.0181,27.6047 C31.2501,26.0657 31.9921,24.1177 31.9921,21.9967 C31.9921,17.0357 27.9571,12.9997 22.9961,12.9997 C18.0351,12.9997 14.0001,17.0357 14.0001,21.9967 C14.0001,26.9577 18.0351,30.9927 22.9961,30.9927 C25.1171,30.9927 27.0641,30.2507 28.6041,29.0187 L32.5821,32.9967 C32.9731,33.3877 33.6051,33.3877 33.9961,32.9967 C34.3871,32.6057 34.3871,31.9727 33.9961,31.5827" id="icn-search"></path>
        </g>
    </g>
</svg>
