<?xml version="1.0" encoding="UTF-8"?>
<svg width="24px" height="24px" viewBox="0 0 24 24" version="1.1" xmlns="http://www.w3.org/2000/svg" xmlns:xlink="http://www.w3.org/1999/xlink">
    <!-- Generator: Sketch 54.1 (76490) - https://sketchapp.com -->
    <title>Icons/icn-heart</title>
    <desc>Created with Sketch.</desc>
    <g id="Icons/icn-heart" stroke="none" stroke-width="1" fill="none" fill-rule="evenodd">
        <path d="M8.26875,4.99980037 C7.17475,4.99980037 6.08075,5.41580037 5.24775,6.24880037 C3.58275,7.91480037 3.58275,10.6258004 5.24775,12.2908004 L11.99675,19.0398004 L18.74575,12.2908004 C20.41075,10.6258004 20.41075,7.91480037 18.74575,6.24880037 C17.07975,4.58280037 14.36975,4.58280037 12.70375,6.24880037 C12.31275,6.63980037 11.68075,6.63980037 11.28975,6.24880037 C10.45675,5.41580037 9.36275,4.99980037 8.26875,4.99980037 M11.99675,21.4538004 C11.74075,21.4538004 11.48475,21.3558004 11.28975,21.1608004 L3.83375,13.7048004 C1.38875,11.2598004 1.38875,7.28080037 3.83375,4.83480037 C6.05475,2.61180037 9.54275,2.40880037 11.99675,4.22580037 C14.45075,2.40980037 17.93875,2.61280037 20.15975,4.83480037 C22.60475,7.28080037 22.60475,11.2598004 20.15975,13.7048004 L12.70375,21.1608004 C12.50875,21.3558004 12.25275,21.4538004 11.99675,21.4538004" id="Fill-1" fill="#003094"></path>
    </g>
</svg>