<?xml version="1.0" encoding="UTF-8"?>
<svg width="18px" height="21px" viewBox="0 0 18 21" version="1.1" xmlns="http://www.w3.org/2000/svg" xmlns:xlink="http://www.w3.org/1999/xlink">
    <!-- Generator: Sketch 52 (66869) - http://www.bohemiancoding.com/sketch -->
    <title>icn-time</title>
    <desc>Created with Sketch.</desc>
    <g id="Desktop-Pages" stroke="none" stroke-width="1" fill="none" fill-rule="evenodd">
        <g id="Service-Page---Tab-1" transform="translate(-1209.000000, -803.000000)" fill="#19448D">
            <g id="Center-Info" transform="translate(1165.000000, 510.000000)">
                <g id="Terms" transform="translate(28.000000, 252.000000)">
                    <path d="M24.9961,53.617 C24.4441,53.617 23.9961,53.169 23.9961,52.617 L23.9961,47.617 L25.9961,47.617 L25.9961,51.617 L27.9961,51.617 L27.9961,53.617 L24.9961,53.617 Z M24.9961,45.6204 C21.1391,45.6204 18.0001,48.7594 18.0001,52.6174 C18.0001,56.4744 21.1391,59.6134 24.9961,59.6134 C28.8531,59.6134 31.9921,56.4744 31.9921,52.6174 C31.9921,48.7594 28.8531,45.6204 24.9961,45.6204 M24.9961,61.6134 C20.0351,61.6134 16.0001,57.5784 16.0001,52.6174 C16.0001,47.6564 20.0351,43.6204 24.9961,43.6204 C29.9571,43.6204 33.9921,47.6564 33.9921,52.6174 C33.9921,57.5784 29.9571,61.6134 24.9961,61.6134 Z M17.2246,45.8323 C16.9686,45.8323 16.7116,45.7343 16.5166,45.5383 C16.1266,45.1473 16.1266,44.5153 16.5186,44.1243 C17.9986,42.6463 19.8436,41.5783 21.8516,41.0353 C22.3796,40.8933 22.9336,41.2063 23.0786,41.7403 C23.2216,42.2733 22.9066,42.8223 22.3726,42.9673 C20.7016,43.4183 19.1646,44.3093 17.9306,45.5403 C17.7356,45.7343 17.4806,45.8323 17.2246,45.8323 Z M32.7119,45.8323 C32.4559,45.8323 32.2009,45.7343 32.0059,45.5403 C30.7719,44.3093 29.2349,43.4183 27.5639,42.9673 C27.0299,42.8223 26.7149,42.2733 26.8579,41.7403 C27.0029,41.2053 27.5569,40.8903 28.0849,41.0353 C30.0929,41.5783 31.9379,42.6463 33.4179,44.1243 C33.8099,44.5153 33.8099,45.1473 33.4199,45.5383 C33.2249,45.7343 32.9679,45.8323 32.7119,45.8323 Z" id="icn-time"></path>
                </g>
            </g>
        </g>
    </g>
</svg>