<?xml version="1.0" encoding="UTF-8"?>
<svg width="24px" height="18px" viewBox="0 0 24 18" version="1.1" xmlns="http://www.w3.org/2000/svg" xmlns:xlink="http://www.w3.org/1999/xlink">
    <!-- Generator: sketchtool 52.5 (67469) - http://www.bohemiancoding.com/sketch -->
    <title>714532EE-633B-4CC2-B646-915473CCE69F</title>
    <desc>Created with sketchtool.</desc>
    <g id="Page-1" stroke="none" stroke-width="1" fill="none" fill-rule="evenodd">
        <g id="Dataset-Page-/-Issues-Tab" transform="translate(-1345.000000, -199.000000)" fill="#A51F26">
            <g id="User-Menu" transform="translate(1325.000000, 25.000000)">
                <g id="Icons/icn-menu-Copy-4" transform="translate(20.000000, 171.000000)">
                    <path d="M9,5 C8.448,5 8,5.448 8,6 C8,6.552 8.448,7 9,7 C9.552,7 10,6.552 10,6 C10,5.448 9.552,5 9,5 Z M1,7 C0.447,7 0,6.553 0,6 C0,5.447 0.447,5 1,5 L6.184,5 C6.598,3.838 7.698,3 9,3 C10.654,3 12,4.346 12,6 C12,7.654 10.654,9 9,9 C7.698,9 6.599,8.162 6.184,7 L1,7 Z M16,13 C16.552,13 17,12.552 17,12 C17,11.448 16.552,11 16,11 C15.448,11 15,11.448 15,12 C15,12.552 15.448,13 16,13 Z M16,9 C17.654,9 19,10.346 19,12 C19,13.654 17.654,15 16,15 C14.698,15 13.599,14.161 13.184,13 L1,13 C0.447,13 0,12.553 0,12 C0,11.447 0.447,11 1,11 L13.184,11 C13.598,9.838 14.698,9 16,9 Z M9,19 C9.552,19 10,18.552 10,18 C10,17.448 9.552,17 9,17 C8.448,17 8,17.448 8,18 C8,18.552 8.448,19 9,19 Z M9,15 C10.654,15 12,16.346 12,18 C12,19.654 10.654,21 9,21 C7.698,21 6.599,20.161 6.184,19 L1,19 C0.447,19 0,18.553 0,18 C0,17.447 0.447,17 1,17 L6.184,17 C6.598,15.839 7.698,15 9,15 Z M13.8999819,19 C13.9655697,18.6768901 14,18.3424658 14,18 C14,17.6575342 13.9655697,17.3231099 13.8999819,17 L23,17 C23.553,17 24,17.447 24,18 C24,18.553 23.553,19 23,19 L13.8999819,19 Z M20.8999819,13 C20.9655697,12.6768901 21,12.3424658 21,12 C21,11.6575342 20.9655697,11.3231099 20.8999819,11 L23,11 C23.553,11 24,11.447 24,12 C24,12.553 23.553,13 23,13 L20.8999819,13 Z M13.8999819,7 C13.9655697,6.67689006 14,6.34246584 14,6 C14,5.65753416 13.9655697,5.32310994 13.8999819,5 L23,5 C23.553,5 24,5.447 24,6 C24,6.553 23.553,7 23,7 L13.8999819,7 Z" id="Combined-Shape"></path>
                </g>
            </g>
        </g>
    </g>
</svg>