<?xml version="1.0" encoding="UTF-8"?>
<svg width="24px" height="24px" viewBox="0 0 24 24" version="1.1" xmlns="http://www.w3.org/2000/svg" xmlns:xlink="http://www.w3.org/1999/xlink">
    <!-- Generator: Sketch 54.1 (76490) - https://sketchapp.com -->
    <title>Icons/icn-issue-opened</title>
    <desc>Created with Sketch.</desc>
    <g id="Icons/icn-issue-opened" stroke="none" stroke-width="1" fill="none" fill-rule="evenodd">
        <path d="M21.121,6.9794 C21.688,7.5454 22,8.2994 22,9.1004 L22,14.8994 C22,15.7004 21.688,16.4544 21.121,17.0204 L17.021,21.1214 C16.454,21.6874 15.701,22.0004 14.899,22.0004 L9.101,22.0004 C8.299,22.0004 7.546,21.6874 6.979,21.1214 L2.879,17.0204 C2.312,16.4544 2,15.7004 2,14.8994 L2,9.1004 C2,8.2994 2.312,7.5454 2.879,6.9794 L6.979,2.8784 C7.546,2.3124 8.299,2.0004 9.101,2.0004 L14.899,2.0004 C15.701,2.0004 16.454,2.3124 17.021,2.8784 L21.121,6.9794 Z M20,14.8994 L20,9.1004 C20,8.8374 19.893,8.5804 19.707,8.3934 L15.606,4.2934 C15.42,4.1064 15.163,4.0004 14.899,4.0004 L9.101,4.0004 C8.837,4.0004 8.58,4.1064 8.394,4.2934 L4.293,8.3934 C4.107,8.5804 4,8.8374 4,9.1004 L4,14.8994 C4,15.1624 4.107,15.4204 4.293,15.6064 L8.394,19.7074 C8.58,19.8934 8.837,20.0004 9.101,20.0004 L14.899,20.0004 C15.163,20.0004 15.42,19.8934 15.606,19.7074 L19.707,15.6064 C19.893,15.4204 20,15.1624 20,14.8994 Z M12,6 C12.552,6 13,6.447 13,7 L13,14 C13,14.553 12.552,15 12,15 C11.448,15 11,14.553 11,14 L11,7 C11,6.447 11.448,6 12,6 Z M12,16 C12.552,16 13,16.447 13,17 C13,17.553 12.552,18 12,18 C11.448,18 11,17.553 11,17 C11,16.447 11.448,16 12,16 Z" id="Fill-5" fill="#003094"></path>
    </g>
</svg>