<?xml version="1.0" encoding="UTF-8"?>
<svg width="24px" height="24px" viewBox="0 0 24 24" version="1.1" xmlns="http://www.w3.org/2000/svg" xmlns:xlink="http://www.w3.org/1999/xlink">
    <!-- Generator: Sketch 54.1 (76490) - https://sketchapp.com -->
    <title>Icons/icn-edit</title>
    <desc>Created with Sketch.</desc>
    <g id="Icons/icn-edit" stroke="none" stroke-width="1" fill="none" fill-rule="evenodd">
        <path d="M8.5928,16.9641 L5.9998,16.9641 L5.9998,14.3711 L11.4898,8.6971 L14.2678,11.4731 L8.5928,16.9641 Z M16.4138,6.5501 C16.7918,6.9281 16.9998,7.4301 16.9998,7.9641 C16.9998,8.4981 16.7918,9.0001 16.4228,9.3691 L15.6978,10.0761 L12.8878,7.2651 L13.5858,6.5501 C14.3418,5.7941 15.6578,5.7941 16.4138,6.5501 L16.4138,6.5501 Z M16.4138,12.2061 C16.3818,12.2381 16.3408,12.2521 16.3058,12.2781 L9.6978,18.6801 C9.5118,18.8611 9.2608,18.9641 8.9998,18.9641 L5.4138,18.9641 L4.7068,19.6711 C4.5118,19.8661 4.2558,19.9641 3.9998,19.9641 C3.7438,19.9641 3.4888,19.8661 3.2928,19.6711 C2.9028,19.2801 2.9028,18.6481 3.2928,18.2571 L3.9998,17.5501 L3.9998,13.9641 C3.9998,13.7031 4.1028,13.4521 4.2838,13.2661 L10.6868,6.6581 C10.7128,6.6231 10.7258,6.5821 10.7578,6.5501 C10.7858,6.5221 10.8228,6.5101 10.8538,6.4861 L12.1628,5.1451 C13.6908,3.6151 16.3188,3.6241 17.8278,5.1361 C18.5838,5.8911 18.9998,6.8961 18.9998,7.9641 C18.9998,9.0321 18.5838,10.0371 17.8278,10.7921 L16.4778,12.1101 C16.4538,12.1411 16.4428,12.1781 16.4138,12.2061 Z M18,17.9641 C18.553,17.9641 19,18.4111 19,18.9641 C19,19.5171 18.553,19.9641 18,19.9641 L13.125,19.9641 C12.572,19.9641 12.125,19.5171 12.125,18.9641 C12.125,18.4111 12.572,17.9641 13.125,17.9641 L18,17.9641 Z" id="Fill-1" fill="#003094"></path>
    </g>
</svg>