<?xml version="1.0" encoding="UTF-8"?>
<svg width="20px" height="20px" viewBox="0 0 20 20" version="1.1" xmlns="http://www.w3.org/2000/svg" xmlns:xlink="http://www.w3.org/1999/xlink">
    <!-- Generator: sketchtool 52.5 (67469) - http://www.bohemiancoding.com/sketch -->
    <title>C45BF16A-4725-4ED1-8AFC-8F35EDF260E4</title>
    <desc>Created with sketchtool.</desc>
    <g id="Page-1" stroke="none" stroke-width="1" fill="none" fill-rule="evenodd">
        <g id="Dataset-Page-/-Issues-Tab" transform="translate(-1347.000000, -126.000000)" fill="#A51F26">
            <g id="User-Menu" transform="translate(1325.000000, 25.000000)">
                <g id="Icons/icn-menu-Copy-2" transform="translate(20.000000, 99.000000)">
                    <path d="M20,2 C21.103,2 22,2.897 22,4 L22,8 C22,9.103 21.103,10 20,10 L4,10 C2.897,10 2,9.103 2,8 L2,4 C2,2.897 2.897,2 4,2 L20,2 Z M4,8 L20.002,8 L20,4 L4,4 L4,8 Z M21,16 C21.553,16 22,16.447 22,17 C22,17.553 21.553,18 21,18 L3,18 C2.447,18 2,17.553 2,17 C2,16.447 2.447,16 3,16 L21,16 Z M21,12 C21.553,12 22,12.447 22,13 C22,13.553 21.553,14 21,14 L3,14 C2.447,14 2,13.553 2,13 C2,12.447 2.447,12 3,12 L21,12 Z M18,20 C18.553,20 19,20.447 19,21 C19,21.553 18.553,22 18,22 L3,22 C2.447,22 2,21.553 2,21 C2,20.447 2.447,20 3,20 L18,20 Z" id="Combined-Shape"></path>
                </g>
            </g>
        </g>
    </g>
</svg>