<?xml version="1.0" encoding="UTF-8"?>
<svg width="24px" height="24px" viewBox="0 0 24 24" version="1.1" xmlns="http://www.w3.org/2000/svg" xmlns:xlink="http://www.w3.org/1999/xlink">
    <!-- Generator: sketchtool 52.5 (67469) - http://www.bohemiancoding.com/sketch -->
    <title>5F7346D2-490B-45DE-81E0-F6B25E000327</title>
    <desc>Created with sketchtool.</desc>
    <g id="Page-1" stroke="none" stroke-width="1" fill="none" fill-rule="evenodd">
        <g id="Dataset-Page-/-Issues-Tab" transform="translate(-1345.000000, -42.000000)" fill="#A51F26">
            <g id="User-Menu" transform="translate(1325.000000, 25.000000)">
                <g id="Icons/icn-menu-Copy-7" transform="translate(20.000000, 17.000000)">
                    <path d="M6.1348,20.0908 C7.0158,20.7168 9.1678,21.9998 11.9998,21.9998 C14.8548,21.9998 16.9908,20.7198 17.8658,20.0938 C17.5308,19.4198 16.4428,18.8178 15.5368,18.3178 C14.3288,17.6498 13.1878,17.0188 13.1878,15.8748 C13.1878,15.0308 13.6208,14.4348 14.0038,13.9078 C14.4928,13.2348 14.9998,12.5368 14.9998,10.9998 C14.9998,8.0338 12.1218,7.9998 11.9998,7.9998 C11.8778,7.9998 8.9998,8.0338 8.9998,10.9998 C8.9998,12.5368 9.5068,13.2348 9.9958,13.9078 C10.3788,14.4348 10.8128,15.0308 10.8128,15.8748 C10.8128,17.0188 9.6708,17.6498 8.4628,18.3178 C7.5598,18.8178 6.4708,19.4188 6.1348,20.0908 Z M11.9998,23.9998 C7.4818,23.9998 4.4888,21.3568 4.3628,21.2438 L4.0308,20.9448 L4.0308,20.4998 C4.0308,18.4828 6.0328,17.3758 7.4948,16.5678 C7.9308,16.3258 8.5658,15.9748 8.7938,15.7578 C8.7448,15.5938 8.5998,15.3888 8.3788,15.0838 C7.8288,14.3288 6.9998,13.1878 6.9998,10.9998 C6.9998,7.3318 9.9898,5.9998 11.9998,5.9998 C14.0098,5.9998 16.9998,7.3318 16.9998,10.9998 C16.9998,13.1878 16.1708,14.3288 15.6208,15.0838 C15.4008,15.3888 15.2548,15.5938 15.2058,15.7578 C15.4348,15.9748 16.0698,16.3258 16.5048,16.5678 C17.9668,17.3758 19.9688,18.4828 19.9688,20.4998 L19.9688,20.9448 L19.6378,21.2438 C19.5118,21.3568 16.5188,23.9998 11.9998,23.9998 Z M3.2246,16.7773 C3.4396,17.1693 3.3906,17.6513 3.0726,17.9643 L3.0296,18.0063 C2.5756,18.4503 1.8146,18.3483 1.5046,17.7933 C0.5496,16.0753 -0.0004,14.1023 -0.0004,12.0003 C-0.0004,4.9443 6.1206,-0.7087 13.3316,0.0723 C18.8856,0.6733 23.3696,5.2013 23.9366,10.7593 C24.1966,13.3093 23.6436,15.7113 22.5156,17.7553 C22.1986,18.3303 21.4116,18.4383 20.9436,17.9783 C20.6326,17.6733 20.5436,17.1963 20.7536,16.8153 C21.5456,15.3863 21.9996,13.7463 21.9996,12.0003 C21.9996,5.8763 16.4666,1.0203 10.1376,2.1693 C6.1766,2.8883 2.9786,6.0443 2.1986,9.9943 C1.7086,12.4693 2.1516,14.8193 3.2246,16.7773 Z" id="Combined-Shape"></path>
                </g>
            </g>
        </g>
    </g>
</svg>