<?xml version="1.0" encoding="UTF-8"?>
<svg width="24px" height="24px" viewBox="0 0 24 24" version="1.1" xmlns="http://www.w3.org/2000/svg" xmlns:xlink="http://www.w3.org/1999/xlink">
    <!-- Generator: Sketch 54.1 (76490) - https://sketchapp.com -->
    <title>Icons/icn-propositions</title>
    <desc>Created with Sketch.</desc>
    <g id="Icons/icn-propositions" stroke="none" stroke-width="1" fill="none" fill-rule="evenodd">
        <path d="M7,6 C5.346,6 4,7.346 4,9 L4,13 C4,14.654 5.346,16 7,16 C7.552,16 8,16.447 8,17 L8,18.586 L10.293,16.293 C10.48,16.105 10.735,16 11,16 L17,16 C18.654,16 20,14.654 20,13 L20,9 C20,7.346 18.654,6 17,6 L7,6 Z M7,22 C6.871,22 6.741,21.976 6.617,21.924 C6.244,21.77 6,21.404 6,21 L6,17.899 C3.721,17.435 2,15.415 2,13 L2,9 C2,6.243 4.243,4 7,4 L17,4 C19.757,4 22,6.243 22,9 L22,13 C22,15.757 19.757,18 17,18 L11.414,18 L7.707,21.707 C7.516,21.898 7.26,22 7,22 Z M10,11 C10,11.553 9.552,12 9,12 C8.448,12 8,11.553 8,11 C8,10.447 8.448,10 9,10 C9.552,10 10,10.447 10,11 Z M13,11 C13,11.553 12.552,12 12,12 C11.448,12 11,11.553 11,11 C11,10.447 11.448,10 12,10 C12.552,10 13,10.447 13,11 Z M16,11 C16,11.553 15.552,12 15,12 C14.448,12 14,11.553 14,11 C14,10.447 14.448,10 15,10 C15.552,10 16,10.447 16,11 Z" id="Combined-Shape" fill="#003094"></path>
    </g>
</svg>