<?xml version="1.0" encoding="UTF-8"?>
<svg width="24px" height="24px" viewBox="0 0 24 24" version="1.1" xmlns="http://www.w3.org/2000/svg" xmlns:xlink="http://www.w3.org/1999/xlink">
    <!-- Generator: Sketch 54.1 (76490) - https://sketchapp.com -->
    <title>Icons/icn-star</title>
    <desc>Created with Sketch.</desc>
    <g id="Icons/icn-star" stroke="none" stroke-width="1" fill="none" fill-rule="evenodd">
        <path d="M11.6060807,19.080855 C11.8576295,18.9730483 12.1423705,18.9730483 12.3939193,19.080855 L17.6847377,21.3483486 L16.7223339,16.0322418 C16.6654816,15.718202 16.7619385,15.3958874 16.9819558,15.1647045 L20.9550966,10.989933 L15.3751503,10.1343459 C15.052564,10.0848829 14.7744096,9.88111931 14.6299754,9.58846375 L12,4.25955146 L9.37002456,9.58846375 C9.22559041,9.88111931 8.94743598,10.0848829 8.62484967,10.1343459 L3.04490339,10.989933 L7.01804419,15.1647045 C7.23806155,15.3958874 7.33451842,15.718202 7.27766609,16.0322418 L6.31526227,21.3483486 L11.6060807,19.080855 Z M5.3939193,23.919145 C4.66147297,24.2330506 3.87403913,23.6059921 4.01599482,22.8218602 L5.21919448,16.1756501 L0.275616708,10.9811935 C-0.281425032,10.3958828 0.0497605983,9.42581152 0.848438812,9.30334819 L7.80701064,8.23637295 L11.1032639,1.55743429 C11.4700776,0.81418857 12.5299224,0.81418857 12.8967361,1.55743429 L16.1929894,8.23637295 L23.1515612,9.30334819 C23.9502394,9.42581152 24.281425,10.3958828 23.7243833,10.9811935 L18.7808055,16.1756501 L19.9840052,22.8218602 C20.1259609,23.6059921 19.338527,24.2330506 18.6060807,23.919145 L12,21.0879676 L5.3939193,23.919145 Z" id="Star" fill="#003094"></path>
    </g>
</svg>