<?xml version="1.0" encoding="UTF-8"?>
<svg width="24px" height="24px" viewBox="0 0 24 24" version="1.1" xmlns="http://www.w3.org/2000/svg" xmlns:xlink="http://www.w3.org/1999/xlink">
    <!-- Generator: Sketch 54.1 (76490) - https://sketchapp.com -->
    <title>Icons/icn-sn-facebook</title>
    <desc>Created with Sketch.</desc>
    <g id="Icons/icn-sn-facebook" stroke="none" stroke-width="1" fill="none" fill-rule="evenodd">
        <path d="M14.667,19.9999 L14.667,13.9999 L16.937,13.8039 L17.333,11.3329 L14.667,11.3329 L14.667,9.9999 C14.667,9.3009 15.052,8.6719 16.055,8.6719 L17.333,8.6719 L17.333,6.5119 C17.112,6.4829 16.354,6.4159 15.47,6.4159 C13.627,6.4159 12,7.2669 12,9.3329 L12,11.3329 L10,11.3329 L10,13.9999 L12,13.9999 L12,19.9999 L6.5638852,19.9999 C5.67236646,19.9999 5.34908022,19.9070744 5.0231543,19.7327673 C4.69722837,19.5584602 4.4414398,19.3026716 4.2671327,18.9767457 C4.09282561,18.6508198 4,18.3275335 4,17.4360148 L4,6.5637852 C4,5.67226646 4.09282561,5.34898022 4.2671327,5.0230543 C4.4414398,4.69712837 4.69722837,4.4413398 5.0231543,4.2670327 C5.34908022,4.09272561 5.67236646,3.9999 6.5638852,3.9999 L17.4361148,3.9999 C18.3276335,3.9999 18.6509198,4.09272561 18.9768457,4.2670327 C19.3027716,4.4413398 19.5585602,4.69712837 19.7328673,5.0230543 C19.9071744,5.34898022 20,5.67226646 20,6.5637852 L20,17.4360148 C20,18.3275335 19.9071744,18.6508198 19.7328673,18.9767457 C19.5585602,19.3026716 19.3027716,19.5584602 18.9768457,19.7327673 C18.6509198,19.9070744 18.3276335,19.9999 17.4361148,19.9999 L14.667,19.9999 Z" id="Fill-1" fill="#003094"></path>
    </g>
</svg>