<?xml version="1.0" encoding="UTF-8"?>
<svg width="24px" height="24px" viewBox="0 0 24 24" version="1.1" xmlns="http://www.w3.org/2000/svg" xmlns:xlink="http://www.w3.org/1999/xlink">
    <!-- Generator: Sketch 54.1 (76490) - https://sketchapp.com -->
    <title>Icons/icn-graph</title>
    <desc>Created with Sketch.</desc>
    <g id="Icons/icn-graph" stroke="none" stroke-width="1" fill="none" fill-rule="evenodd">
        <path d="M20,19 L21,19 L21,11 L20,11 L20,19 Z M14,19 L15,19 L15,5 L14,5 L14,19 Z M8,19 L9,19 L9,8 L8,8 L8,19 Z M2,19 L3,19 L3,13 L2,13 L2,19 Z M22,9 L19,9 C18.447,9 18,9.447 18,10 L18,19 L17,19 L17,4 C17,3.447 16.553,3 16,3 L13,3 C12.447,3 12,3.447 12,4 L12,19 L11,19 L11,7 C11,6.447 10.553,6 10,6 L7,6 C6.447,6 6,6.447 6,7 L6,19 L5,19 L5,12 C5,11.447 4.553,11 4,11 L1,11 C0.447,11 0,11.447 0,12 L0,20 C0,20.553 0.447,21 1,21 L4,21 L7,21 L10,21 L13,21 L16,21 L19,21 L22,21 C22.553,21 23,20.553 23,20 L23,10 C23,9.447 22.553,9 22,9 L22,9 Z" id="Fill-1" fill="#003094"></path>
    </g>
</svg>