<?xml version="1.0" encoding="UTF-8"?>
<svg width="24px" height="24px" viewBox="0 0 24 24" version="1.1" xmlns="http://www.w3.org/2000/svg" xmlns:xlink="http://www.w3.org/1999/xlink">
    <!-- Generator: Sketch 54.1 (76490) - https://sketchapp.com -->
    <title>Icons/icn-issue-closed</title>
    <desc>Created with Sketch.</desc>
    <g id="Icons/icn-issue-closed" stroke="none" stroke-width="1" fill="none" fill-rule="evenodd">
        <path d="M12,2 C17.5225,2 22,6.4775 22,12 C22,17.5225 17.5225,22 12,22 C6.4775,22 2,17.5225 2,12 C2,6.4775 6.4775,2 12,2 Z M12,20 C16.4112,20 20,16.4112 20,12 C20,7.5888 16.4112,4 12,4 C7.5888,4 4,7.5888 4,12 C4,16.4112 7.5888,20 12,20 Z M16.2168,10.4395 L11.9748,14.6815 C11.5838,15.0725 10.9508,15.0725 10.5608,14.6815 L8.3188,12.4395 L9.7328,11.0255 L11.2678,12.5605 L14.8028,9.0255 L16.2168,10.4395 Z" id="Combined-Shape" fill="#003094"></path>
    </g>
</svg>