<?xml version="1.0" encoding="UTF-8"?>
<svg width="24px" height="24px" viewBox="0 0 24 24" version="1.1" xmlns="http://www.w3.org/2000/svg" xmlns:xlink="http://www.w3.org/1999/xlink">
    <!-- Generator: Sketch 54.1 (76490) - https://sketchapp.com -->
    <title>Icons/icn-datagroup</title>
    <desc>Created with Sketch.</desc>
    <g id="Icons/icn-datagroup" stroke="none" stroke-width="1" fill="none" fill-rule="evenodd">
        <path d="M2.87136119,21.9975874 C2.83110587,21.9991907 2.79064706,22 2.75,22 C2.63433229,22 2.52325132,21.9803619 2.41990936,21.9442379 C1.04060463,21.6739463 0.0001,20.4584158 0.0001,19.0003 L0.0001,7.0003 C0.0001,5.89520584 0.8956243,5.0003 2.0001,5.0003 L12.4651,5.0003 C12.4647252,5.0003 12.4645039,5.00041858 12.4650497,4.9995998 L13.8710497,2.8905998 C14.243481,2.33395273 14.8671717,2.0003 15.5351,2.0003 L22.0001,2.0003 C23.1045757,2.0003 24.0001,2.89520584 24.0001,4.0003 L24.0001,19.0003 C24.0001,20.6565847 22.6563847,22.0003 21.0001,22.0003 L3.0001,22.0003 C2.95696824,22.0003 2.91404926,21.9993897 2.87136119,21.9975874 Z M22.0001,9 L22.0001,4.0003 L15.5351,4.0003 C15.5351939,4.0003 15.5348467,4.00048797 15.5343053,4.00126774 L14.1291503,6.1090002 C13.7578847,6.66589855 13.1338142,7.0003 12.4651,7.0003 L2.0001,7.0003 L2.0001,19.0003 C2.0001,19.5096573 2.38111676,19.9302716 2.87376524,19.9923937 C3.36722273,19.9313101 3.75,19.5098132 3.75,19 L3.75,11 C3.75,9.89490584 4.6455243,9 5.75,9 L22.0001,9 Z M22.0001,11 L5.75,11 L5.75,19 C5.75,19.3507109 5.68975294,19.6874075 5.57904837,20.0003 L21.0001,20.0003 C21.5518153,20.0003 22.0001,19.5520153 22.0001,19.0003 L22.0001,11 Z" id="Combined-Shape" fill="#003094"></path>
    </g>
</svg>