<?xml version="1.0" encoding="UTF-8"?>
<svg width="24px" height="24px" viewBox="0 0 24 24" version="1.1" xmlns="http://www.w3.org/2000/svg" xmlns:xlink="http://www.w3.org/1999/xlink">
    <!-- Generator: Sketch 52 (66869) - http://www.bohemiancoding.com/sketch -->
    <title>Icons/icn-website-01</title>
    <desc>Created with Sketch.</desc>
    <g id="Icons/icn-website-01" stroke="none" stroke-width="1" fill="none" fill-rule="evenodd">
        <path d="M21,18 C21,20.206 19.206,22 17,22 L7.667,22 C6.807,22 5.954,21.716 5.268,21.2 L5,21 C3.748,20.061 3,18.565 3,17 L3,13.472 C3,12.329 3.636,11.301 4.658,10.789 L5,10.618 L5,16 C5,16.553 5.447,17 6,17 C6.553,17 7,16.553 7,16 L7,3 C7,2.448 7.448,2 8,2 C8.552,2 9,2.448 9,3 L9,8 L9,13 C9,13.553 9.447,14 10,14 C10.553,14 11,13.553 11,13 L11,8 C11,7.448 11.448,7 12,7 C12.552,7 13,7.448 13,8 L13,13 C13,13.553 13.447,14 14,14 C14.553,14 15,13.553 15,13 L15,8 C15,7.448 15.448,7 16,7 C16.552,7 17,7.448 17,8 L17,10 L17,13 C17,13.553 17.447,14 18,14 C18.553,14 19,13.553 19,13 L19,10 C19,9.448 19.448,9 20,9 C20.552,9 21,9.448 21,10 L21,18 Z M20,7 C19.605,7 19.229,7.081 18.885,7.221 C18.538,5.945 17.383,5 16,5 C15.229,5 14.532,5.301 14,5.78 C13.468,5.301 12.771,5 12,5 C11.647,5 11.314,5.072 11,5.185 L11,3 C11,1.346 9.654,0 8,0 C6.346,0 5,1.346 5,3 L5,8.382 L3.764,9 C2.059,9.854 1,11.566 1,13.472 L1,17 C1,19.191 2.047,21.285 3.8,22.6 L4.066,22.8 C5.098,23.574 6.377,24 7.667,24 L17,24 C20.309,24 23,21.309 23,18 L23,10 C23,8.346 21.654,7 20,7 Z" id="Fill-1" fill="#1059D3"></path>
    </g>
</svg>