<?xml version="1.0" encoding="UTF-8"?>
<svg width="24px" height="24px" viewBox="0 0 24 24" version="1.1" xmlns="http://www.w3.org/2000/svg" xmlns:xlink="http://www.w3.org/1999/xlink">
    <!-- Generator: Sketch 52 (66869) - http://www.bohemiancoding.com/sketch -->
    <title>Icons/icn-mail</title>
    <desc>Created with Sketch.</desc>
    <g id="Icons/icn-mail" stroke="none" stroke-width="1" fill="none" fill-rule="evenodd">
        <path d="M4.0753,6 L12.0003,11.764 L19.9253,6 L4.0753,6 Z M12.0003,14 C11.7943,14 11.5873,13.937 11.4123,13.809 L0.4123,5.809 C0.0613,5.554 -0.0847,5.103 0.0493,4.69 C0.1823,4.279 0.5663,4 1.0003,4 L23.0003,4 C23.4333,4 23.8173,4.279 23.9513,4.69 C24.0853,5.103 23.9383,5.554 23.5883,5.809 L12.5883,13.809 C12.4133,13.937 12.2063,14 12.0003,14 Z M22.0002,9.4365 L24.0002,7.9815 L24.0002,18.9995 C24.0002,19.5525 23.5532,19.9995 23.0002,19.9995 L1.0002,19.9995 C0.4472,19.9995 0.0002,19.5525 0.0002,18.9995 L0.0002,7.9815 L2.0002,9.4365 L2.0002,17.0215 L7.1812,13.2045 L8.8772,14.4375 L4.0422,17.9995 L19.9582,17.9995 L15.1232,14.4375 L16.8192,13.2045 L22.0002,17.0215 L22.0002,9.4365 Z" id="Combined-Shape" fill="#B2C0DE"></path>
    </g>
</svg>