<?xml version="1.0" encoding="UTF-8"?>
<svg width="40px" height="36px" viewBox="0 0 40 36" version="1.1" xmlns="http://www.w3.org/2000/svg" xmlns:xlink="http://www.w3.org/1999/xlink">
    <!-- Generator: Sketch 54.1 (76490) - https://sketchapp.com -->
    <title>img-attention</title>
    <desc>Created with Sketch.</desc>
    <g id="Page-1" stroke="none" stroke-width="1" fill="none" fill-rule="evenodd">
        <g id="Index-01" transform="translate(-1277.000000, -509.000000)" fill="#F5C623">
            <g id="Notification" transform="translate(1260.000000, 509.000000)">
                <path d="M39,22.0094 L35,22.0094 L35,14.0094 C35,12.9054 35.894,12.0094 37,12.0094 C38.106,12.0094 39,12.9054 39,14.0094 L39,22.0094 Z M37,-0.0004 C39.032,-0.0004 41.062,0.9996 42.222,2.9956 L56.184,27.0136 C58.504,31.0076 55.604,35.9996 50.96,35.9996 L23.04,35.9996 C18.396,35.9996 15.496,31.0076 17.816,27.0136 L31.778,2.9956 C32.938,0.9996 34.968,-0.0004 37,-0.0004 Z M37,3.9936 C36.65,3.9936 35.784,4.0916 35.26,4.9916 L21.298,29.0116 C20.776,29.9116 21.126,30.7076 21.298,31.0076 C21.472,31.3076 21.992,32.0056 23.04,32.0056 L50.96,32.0056 C52.008,32.0056 52.528,31.3076 52.702,31.0076 C52.874,30.7076 53.224,29.9116 52.702,29.0116 L38.74,4.9916 C38.216,4.0916 37.35,3.9936 37,3.9936 Z M39,26.0094 C39,27.1134 38.106,28.0094 37,28.0094 C35.894,28.0094 35,27.1134 35,26.0094 C35,24.9054 35.894,24.0094 37,24.0094 C38.106,24.0094 39,24.9054 39,26.0094 Z" id="img-attention"></path>
            </g>
        </g>
    </g>
</svg>