<?xml version="1.0" encoding="UTF-8"?>
<svg width="69px" height="82px" viewBox="0 0 69 82" version="1.1" xmlns="http://www.w3.org/2000/svg" xmlns:xlink="http://www.w3.org/1999/xlink">
    <!-- Generator: Sketch 52.5 (67469) - http://www.bohemiancoding.com/sketch -->
    <title>img-vinnytsia-coatofarms</title>
    <desc>Created with Sketch.</desc>
    <defs>
        <path d="M22.1991847,51 C7.86594983,51 6.28824679,32.9851074 16.8063985,25.6033447 C15.1340333,29.0703791 15.4132867,34.4147753 15.4132867,34.4147753 C14.3171775,33.4541486 14.4357025,33.2332942 13.8482053,32.9186715 C10.3879081,43.8251262 18.3182324,46.6846614 21.3422947,46.7510973 C28.4401835,46.9069123 29.9537923,42.0295623 29.9537923,37.906349 L29.9537923,37.8251496 C29.9399874,37.6408051 29.9277602,37.4564605 29.9186884,37.2723155 L29.9186884,18.5541603 L15.4915802,18.5541603 L15.4915802,13.3669757 L29.9186884,13.3669757 L29.9186884,0 L35.0462233,0 L35.0462233,0.332578336 L35.0813272,0.332578336 L35.0813272,13.0343974 L49.5082382,13.0343974 L49.5082382,18.221582 L35.0813272,18.221582 L35.0813272,37.6048938 C35.0740303,37.750135 35.063578,37.8957751 35.0535202,38.0414153 C35.1684953,42.0564957 36.8260696,46.5687478 43.6577209,46.418519 C46.6817832,46.3520831 54.6121075,43.4925478 51.1518103,32.5860932 C50.5643132,32.9007159 50.6830353,33.1215702 49.5867289,34.0821969 C49.5867289,34.0821969 49.8659824,28.7378007 48.1936171,25.2707663 C58.7117689,32.652529 57.1340658,50.6674217 42.8006337,50.6674217 C37.8052315,50.6674217 34.5875062,48.7513555 32.6130108,45.984192 C30.6617866,48.9285178 27.3917998,51 22.1991847,51 Z M64.812233,39.7214881 C59.304237,49.4883887 50.7697089,56.5180308 40.8454568,61.2735756 C39.6052258,61.86782 38.375215,62.4322729 37.1702532,62.9663382 C41.9247723,64.6418216 45.3799446,65.6591078 45.3799446,65.6591078 C45.3799446,65.6591078 47.5209411,58.0791143 50.3897642,59.0834907 C51.8446157,59.5927296 52.2704504,61.0326603 51.4730875,61.7673228 C50.6404555,62.534359 48.900445,62.4384298 48.900445,62.4384298 C48.900445,62.4384298 47.7365637,64.4587021 47.4109255,66.2656661 C48.7649795,66.802512 56.3213905,69.0327163 59.0553492,70.3560622 C62.5155313,72.0307512 66.1891318,76.6430973 61.7634572,77.8711099 C58.5327248,78.7674419 58.0872517,74.7213361 57.8367607,73.979325 C57.4305645,72.7755429 46.463268,69.8889289 46.463268,69.8889289 C46.463268,69.8889289 44.8068213,78.3221558 41.3233936,76.8617682 C38.9192814,75.8540153 40.7228164,72.651411 42.4011059,73.427186 C43.4545708,73.9139819 44.4320868,69.2180205 44.4320868,69.2180205 C44.4320868,69.2180205 39.3094461,67.691694 32.5000994,64.9415258 C25.6905523,67.691694 20.5679116,69.2180205 20.5679116,69.2180205 C20.5679116,69.2180205 21.5454276,73.9139819 22.5988925,73.427186 C24.277182,72.651411 26.080717,75.8540153 23.6766049,76.8617682 C20.1931771,78.3221558 18.5369308,69.8889289 18.5369308,69.8889289 C18.5369308,69.8889289 7.56943389,72.7755429 7.16323772,73.979325 C6.91274674,74.7213361 6.46727359,78.7674419 3.23654117,77.8711099 C-1.1891334,76.6430973 2.48446707,72.0307512 5.94464922,70.3560622 C8.67860793,69.0327163 16.2350189,66.802512 17.5890729,66.2656661 C17.2634347,64.4587021 16.0997538,62.4384298 16.0997538,62.4384298 C16.0997538,62.4384298 14.3595429,62.534359 13.5271113,61.7673228 C12.729548,61.0326603 13.1553827,59.5927296 14.6102343,59.0834907 C17.4790573,58.0791143 19.6200538,65.6591078 19.6200538,65.6591078 C19.6200538,65.6591078 23.0754265,64.6418216 27.8299456,62.9663382 C26.6247834,62.4322729 25.3947726,61.86782 24.1543412,61.2735756 C14.2302895,56.5180308 5.69576138,49.4883887 0.187765402,39.7214881 C-0.459904066,38.57292 0.669710041,36.9949546 2.02196053,38.8626936 C7.36583482,46.2444733 14.6801713,53.4274431 24.3928087,57.8757365 C27.0792743,59.1059338 29.8669383,60.2455644 32.5000994,61.2525228 C35.1330602,60.2455644 37.9209245,59.1059338 40.6071898,57.8757365 C50.3200275,53.4274431 57.634364,46.2444733 62.9782383,38.8626936 C64.3302884,36.9949546 65.4599025,38.57292 64.812233,39.7214881 Z" id="path-1"></path>
        <filter x="-5.4%" y="-3.2%" width="110.8%" height="109.0%" filterUnits="objectBoundingBox" id="filter-2">
            <feOffset dx="0" dy="1" in="SourceAlpha" result="shadowOffsetOuter1"></feOffset>
            <feGaussianBlur stdDeviation="1" in="shadowOffsetOuter1" result="shadowBlurOuter1"></feGaussianBlur>
            <feColorMatrix values="0 0 0 0 0   0 0 0 0 0   0 0 0 0 0  0 0 0 0.2 0" type="matrix" in="shadowBlurOuter1"></feColorMatrix>
        </filter>
    </defs>
    <g id="Page-1" stroke="none" stroke-width="1" fill="none" fill-rule="evenodd">
        <g id="Index-01" transform="translate(-403.000000, -30.000000)">
            <g id="Header" transform="translate(360.000000, 0.000000)">
                <g id="Logo" transform="translate(45.000000, 31.000000)">
                    <g id="img-vinnytsia-coatofarms">
                        <use fill="black" fill-opacity="1" filter="url(#filter-2)" xlink:href="#path-1"></use>
                        <use fill="#FFFFFF" fill-rule="evenodd" xlink:href="#path-1"></use>
                    </g>
                </g>
            </g>
        </g>
    </g>
</svg>